<svg xmlns="http://www.w3.org/2000/svg" width="306" height="93" viewBox="0 0 306 93"><defs><style>@import url(https://fonts.googleapis.com/css?family=Open+Sans:bold,italic,bolditalic%7CPT+Mono);@font-face{font-family:&apos;PT Mono&apos;;font-weight:700;font-style:normal;src:local(&apos;PT MonoBold&apos;),url(/font/PTMonoBold.woff2) format(&apos;woff2&apos;),url(/font/PTMonoBold.woff) format(&apos;woff&apos;),url(/font/PTMonoBold.ttf) format(&apos;truetype&apos;)}</style></defs><g id="regexp" fill="none" fill-rule="evenodd" stroke="none" stroke-width="1"><g id="regexp-nested-groups-matches.svg"><text id="1" fill="#EE6B47" font-family="PTMono-Regular, PT Mono" font-size="20" font-weight="normal"><tspan x="7" y="18">1</tspan></text><path id="&lt;spanclass=&quot;my&quot;&gt;" fill="#8A704D" fill-rule="nonzero" d="M10 40.73v-.642l10.346-6.342.835 1.37-8.72 5.193 8.742 5.105-.835 1.326L10 40.73zm24.807 3.756c0-.471-.183-.836-.549-1.094-.366-.258-.82-.464-1.362-.619a25.065 25.065 0 00-1.768-.43 10.155 10.155 0 01-1.768-.53 3.96 3.96 0 01-1.362-.896c-.366-.376-.55-.902-.55-1.58 0-.56.122-1.039.363-1.436.242-.398.56-.726.956-.984.395-.258.856-.45 1.384-.574a7.105 7.105 0 011.647-.188c1.025 0 1.907.129 2.647.386.74.258 1.329.527 1.768.807l-.703 1.392a18.451 18.451 0 00-1.57-.762c-.564-.243-1.27-.365-2.12-.365-.322 0-.64.033-.955.1-.315.066-.6.165-.857.298a1.71 1.71 0 00-.615.52c-.154.213-.23.475-.23.784 0 .383.182.678.548.884.366.206.82.38 1.362.52.542.14 1.131.272 1.768.397a8.558 8.558 0 011.769.541 3.98 3.98 0 011.362.95c.366.399.549.936.549 1.614 0 1.017-.4 1.856-1.197 2.52-.798.662-1.996.994-3.592.994-.483 0-.959-.044-1.428-.133a8.618 8.618 0 01-1.318-.353 7.906 7.906 0 01-1.12-.498 4.71 4.71 0 01-.834-.563l.878-1.437c.176.177.41.358.703.542a6.62 6.62 0 002.098.85c.402.089.809.133 1.219.133.395 0 .765-.033 1.11-.1.343-.066.647-.169.91-.309.264-.14.473-.324.627-.552a1.45 1.45 0 00.23-.829zm8.663-4.199a22.31 22.31 0 00-.099-1.856 7.394 7.394 0 00-.077-.575h-1.472V36.42h2.922l.22 1.547h.11a4.963 4.963 0 011.504-1.293c.608-.346 1.351-.52 2.23-.52 1.567 0 2.745.435 3.536 1.305.79.869 1.186 2.29 1.186 4.265 0 .928-.135 1.764-.406 2.508s-.655 1.374-1.153 1.89a5.081 5.081 0 01-1.801 1.193c-.703.28-1.48.42-2.329.42-.307 0-.582-.011-.824-.033a7.196 7.196 0 01-.659-.089 5.167 5.167 0 01-.582-.143 7.975 7.975 0 01-.615-.221v4.64H43.47V40.288zm5.052-2.519c-.44 0-.853.081-1.241.243a3.699 3.699 0 00-1.768 1.525 2.61 2.61 0 00-.352.972v5.039c.322.221.685.394 1.088.52.402.125.933.187 1.592.187 1.172 0 2.109-.387 2.812-1.16.703-.774 1.054-1.904 1.054-3.392 0-1.253-.245-2.221-.736-2.906-.49-.686-1.307-1.028-2.449-1.028zm11.386-.486a6.95 6.95 0 012.131-.796c.79-.162 1.567-.243 2.328-.243.747 0 1.359.118 1.835.354.476.235.849.541 1.12.917.27.376.454.803.549 1.282.095.478.143.96.143 1.447 0 .56-.015 1.157-.044 1.79-.03.634-.051 1.267-.066 1.9 0 .737.044 1.437.132 2.1h1.471v1.437h-2.921l-.198-1.658h-.11c-.087.133-.22.302-.395.508a3.624 3.624 0 01-.692.608 4.46 4.46 0 01-1.043.52c-.41.147-.894.22-1.45.22-1.084 0-1.94-.28-2.57-.84-.63-.56-.945-1.325-.945-2.298 0-.751.165-1.377.495-1.878.33-.501.801-.884 1.417-1.15.615-.264 1.358-.42 2.23-.463.87-.045 1.848.014 2.931.176.074-.677.085-1.24.033-1.69-.05-.45-.168-.807-.351-1.072a1.472 1.472 0 00-.769-.563c-.33-.111-.736-.166-1.219-.166-.659 0-1.289.092-1.889.276-.6.184-1.135.372-1.603.564l-.55-1.282zm3.23 8.906c.41 0 .79-.066 1.142-.199.351-.133.659-.302.922-.508.264-.207.483-.431.66-.674.175-.243.307-.476.394-.697v-1.546a12.355 12.355 0 00-2.108-.2c-.645 0-1.201.07-1.67.21-.468.14-.834.358-1.098.653-.264.294-.395.677-.395 1.149 0 .486.164.91.494 1.27.33.361.882.542 1.658.542zm12.616-5.9a22.311 22.311 0 00-.099-1.856 7.394 7.394 0 00-.077-.576h-1.472V36.42h2.944l.197 1.79h.11c.147-.25.34-.497.582-.74a4.57 4.57 0 01.846-.663 4.467 4.467 0 012.328-.652c.674 0 1.27.073 1.79.22.52.148.952.41 1.297.785.344.376.604.884.78 1.525.175.641.263 1.455.263 2.442v6.343H83.53v-6.011c0-1.223-.198-2.144-.593-2.763-.396-.619-1.113-.928-2.153-.928-.38 0-.75.077-1.11.232a3.825 3.825 0 00-.977.608c-.293.25-.549.541-.769.873-.22.331-.38.681-.483 1.05v6.939h-1.691v-7.183zm39.95-2.166a8.637 8.637 0 00-1.088-.299 5.63 5.63 0 00-1.153-.121c-1.435 0-2.504.339-3.207 1.016-.703.678-1.054 1.753-1.054 3.227 0 .648.102 1.226.307 1.735.205.508.498.939.879 1.292.38.354.838.627 1.373.818a5.21 5.21 0 001.768.287c.688 0 1.358-.118 2.01-.353.651-.236 1.197-.545 1.636-.928l.77 1.281a6.219 6.219 0 01-.77.553 7.572 7.572 0 01-1.065.541c-.403.17-.85.306-1.34.41a7.74 7.74 0 01-1.592.154c-.952 0-1.79-.136-2.516-.409-.724-.273-1.329-.663-1.812-1.171a5.019 5.019 0 01-1.098-1.835c-.249-.714-.373-1.506-.373-2.375 0-.928.128-1.753.384-2.475.256-.722.626-1.326 1.11-1.813a4.828 4.828 0 011.756-1.116c.689-.257 1.458-.386 2.307-.386 1.084 0 1.966.095 2.647.287.68.192 1.255.405 1.724.64l-.022.067v3.072h-1.581v-2.1zM124.849 32h3.647v11.757c0 .899.15 1.532.45 1.9.3.369.743.553 1.329.553.41 0 .802-.074 1.175-.221.373-.147.787-.398 1.241-.751l.79 1.215c-.233.206-.49.39-.768.553a5.693 5.693 0 01-1.735.663 4.14 4.14 0 01-.813.088c-.542 0-1.025-.07-1.45-.21a2.475 2.475 0 01-1.065-.674c-.286-.31-.502-.718-.648-1.227-.146-.508-.22-1.138-.22-1.89V33.482h-1.933V32zm15.934 5.282a6.95 6.95 0 012.13-.796c.791-.162 1.567-.243 2.329-.243.746 0 1.358.118 1.834.354.476.235.85.541 1.12.917.27.376.454.803.55 1.282.094.478.142.96.142 1.447 0 .56-.015 1.157-.044 1.79-.03.634-.051 1.267-.066 1.9 0 .737.044 1.437.132 2.1h1.472v1.437h-2.922l-.198-1.658h-.11c-.087.133-.219.302-.395.508a3.624 3.624 0 01-.692.608 4.46 4.46 0 01-1.043.52c-.41.147-.893.22-1.45.22-1.083 0-1.94-.28-2.57-.84-.63-.56-.944-1.325-.944-2.298 0-.751.164-1.377.494-1.878.33-.501.802-.884 1.417-1.15.615-.264 1.358-.42 2.23-.463.87-.045 1.848.014 2.932.176.073-.677.084-1.24.033-1.69-.052-.45-.169-.807-.352-1.072a1.472 1.472 0 00-.769-.563c-.33-.111-.735-.166-1.219-.166-.659 0-1.288.092-1.889.276-.6.184-1.135.372-1.603.564l-.55-1.282zm3.229 8.906c.41 0 .79-.066 1.142-.199.351-.133.659-.302.922-.508.264-.207.484-.431.66-.674.175-.243.307-.476.395-.697v-1.546a12.355 12.355 0 00-2.109-.2c-.644 0-1.2.07-1.67.21-.468.14-.834.358-1.098.653-.263.294-.395.677-.395 1.149 0 .486.165.91.494 1.27.33.361.882.542 1.659.542zm20.194-1.702c0-.471-.183-.836-.549-1.094-.366-.258-.82-.464-1.362-.619a25.065 25.065 0 00-1.768-.43 10.155 10.155 0 01-1.768-.53 3.96 3.96 0 01-1.362-.896c-.366-.376-.55-.902-.55-1.58 0-.56.121-1.039.363-1.436.242-.398.56-.726.956-.984.395-.258.856-.45 1.383-.574a7.105 7.105 0 011.648-.188c1.025 0 1.907.129 2.647.386.74.258 1.329.527 1.768.807l-.703 1.392a18.45 18.45 0 00-1.57-.762c-.564-.243-1.27-.365-2.12-.365-.322 0-.64.033-.956.1-.315.066-.6.165-.856.298a1.71 1.71 0 00-.615.52c-.154.213-.231.475-.231.784 0 .383.183.678.55.884.365.206.82.38 1.36.52.543.14 1.132.272 1.77.397a8.558 8.558 0 011.767.541 3.98 3.98 0 011.362.95c.366.399.55.936.55 1.614 0 1.017-.4 1.856-1.198 2.52-.798.662-1.995.994-3.591.994-.483 0-.96-.044-1.428-.133a8.618 8.618 0 01-1.318-.353 7.906 7.906 0 01-1.12-.498 4.71 4.71 0 01-.835-.563l.879-1.437c.176.177.41.358.703.542a6.62 6.62 0 002.097.85c.403.089.81.133 1.22.133.395 0 .765-.033 1.109-.1.344-.066.648-.169.911-.309.264-.14.473-.324.626-.552a1.45 1.45 0 00.231-.829zm16.175 0c0-.471-.183-.836-.55-1.094-.365-.258-.82-.464-1.361-.619a25.065 25.065 0 00-1.768-.43 10.155 10.155 0 01-1.769-.53 3.96 3.96 0 01-1.361-.896c-.367-.376-.55-.902-.55-1.58 0-.56.121-1.039.363-1.436.241-.398.56-.726.955-.984.396-.258.857-.45 1.384-.574a7.105 7.105 0 011.648-.188c1.025 0 1.907.129 2.647.386.739.258 1.328.527 1.768.807l-.703 1.392a18.451 18.451 0 00-1.57-.762c-.564-.243-1.271-.365-2.12-.365-.323 0-.641.033-.956.1-.315.066-.6.165-.857.298a1.71 1.71 0 00-.615.52c-.153.213-.23.475-.23.784 0 .383.183.678.549.884.366.206.82.38 1.362.52.542.14 1.131.272 1.768.397a8.558 8.558 0 011.768.541 3.98 3.98 0 011.362.95c.366.399.55.936.55 1.614 0 1.017-.4 1.856-1.198 2.52-.798.662-1.995.994-3.591.994-.484 0-.96-.044-1.428-.133a8.618 8.618 0 01-1.318-.353 7.906 7.906 0 01-1.12-.498 4.71 4.71 0 01-.835-.563l.879-1.437c.175.177.41.358.703.542a6.62 6.62 0 002.097.85c.403.089.81.133 1.22.133.395 0 .765-.033 1.109-.1.344-.066.648-.169.911-.309.264-.14.473-.324.626-.552a1.45 1.45 0 00.231-.829zm8.047-7.116h10.193v1.591h-10.193v-1.59zm0 3.624h10.193v1.592h-10.193v-1.592zM210.995 32h1.933l-.68 6.696h-1.253V32zm-4.547 0h1.933l-.68 6.696h-1.253V32zm18.591 15.47v-7.36c0-.309-.01-.607-.032-.895a3.014 3.014 0 00-.154-.773 1.242 1.242 0 00-.352-.541c-.153-.133-.355-.2-.604-.2-.498 0-.919.207-1.263.62-.344.412-.604.928-.78 1.546v7.603h-1.669V36.42h1.142l.33 1.348h.088c.146-.221.289-.431.428-.63.14-.199.3-.372.483-.52.183-.147.4-.26.648-.342.25-.08.564-.121.945-.121.22 0 .446.033.68.1.235.065.451.169.649.309.197.14.37.327.516.563.146.236.241.523.285.862.337-.575.714-1.024 1.132-1.348.417-.324.992-.486 1.724-.486.483 0 .875.08 1.175.243.3.162.535.394.703.696.168.302.286.663.351 1.083.066.42.1.887.1 1.403v7.89h-1.67v-7.514c0-.31-.015-.6-.044-.873a2.798 2.798 0 00-.165-.718 1.188 1.188 0 00-.33-.487c-.138-.117-.325-.176-.56-.176-.512 0-.944.206-1.295.618-.352.413-.615 1.002-.791 1.768v7.382h-1.67zm17.252-1.702h.834l2.724-9.348h1.78l-3.054 9.923a35.88 35.88 0 00-.494 1.756 8.237 8.237 0 01-.714 1.846 4.423 4.423 0 01-1.252 1.458c-.527.398-1.216.597-2.065.597-.19 0-.392-.022-.604-.066a6.02 6.02 0 01-.626-.166 4.025 4.025 0 01-.571-.232 1.533 1.533 0 01-.395-.265l.615-1.591c.087.073.208.147.362.22.154.074.322.137.505.188.183.052.363.096.538.133.176.037.323.055.44.055 1.098 0 1.845-.935 2.24-2.806h-1.471l-4.613-11.05h1.977l3.844 9.348zM259.52 32h1.933l-.681 6.696h-1.252V32zm-4.547 0h1.933l-.681 6.696h-1.252V32zm14.66 14.74l-.836-1.326 8.743-5.105-8.72-5.193.834-1.37L280 40.088v.641l-10.368 6.011z"/><text id="2" fill="#EE6B47" font-family="PTMono-Regular, PT Mono" font-size="20" font-weight="normal"><tspan x="11" y="88">2</tspan></text><text id="3" fill="#EE6B47" font-family="PTMono-Regular, PT Mono" font-size="20" font-weight="normal"><tspan x="94" y="88">3</tspan></text><text id="(....)" fill="#EE6B47" font-family="PTMono-Regular, PT Mono" font-size="20" font-weight="normal"><tspan x="20" y="68">(....)</tspan></text><text id="(............)" fill="#EE6B47" font-family="PTMono-Regular, PT Mono" font-size="20" font-weight="normal"><tspan x="102" y="68">(............)</tspan></text><text id="(..................." fill="#EE6B47" font-family="PTMono-Regular, PT Mono" font-size="20" font-weight="normal"><tspan x="19" y="26">(...................)</tspan></text></g></g></svg>