<svg xmlns="http://www.w3.org/2000/svg" width="550" height="399" viewBox="0 0 550 399"><defs><style>@import url(https://fonts.googleapis.com/css?family=Open+Sans:bold,italic,bolditalic%7CPT+Mono);@font-face{font-family:&apos;PT Mono&apos;;font-weight:700;font-style:normal;src:local(&apos;PT MonoBold&apos;),url(/font/PTMonoBold.woff2) format(&apos;woff2&apos;),url(/font/PTMonoBold.woff) format(&apos;woff&apos;),url(/font/PTMonoBold.ttf) format(&apos;truetype&apos;)}</style></defs><g id="dom" fill="none" fill-rule="evenodd" stroke="none" stroke-width="1"><g id="border-box.svg"><text id="Content" fill="#5A4739" font-family="OpenSans-Regular, Open Sans" font-size="18" font-weight="normal"><tspan x="321.435" y="96">Content</tspan></text><text id="Content" fill="#5A4739" font-family="OpenSans-Regular, Open Sans" font-size="18" font-weight="normal"><tspan x="321.435" y="301">Content</tspan></text><path id="Path-2" fill="#999647" d="M218 38h274v107H218V38zm14 12v83h247V50H232zM193 243h324v107H193V243zm14 12v83h297v-83H207z"/><path id="Rectangle-222" fill="#E8C48E" d="M223 43h264v97H223V43zm20 20v57h224V63H243zM198 248h314v97H198v-97zm20 20v57h274v-57H218z"/><path id="Line" stroke="#EE6B47" stroke-dasharray="3,6" stroke-linecap="square" stroke-width="2" d="M217 20.5v344.07"/><path id="Line-2" stroke="#EE6B47" stroke-dasharray="3,6" stroke-linecap="square" stroke-width="2" d="M493 20.5v344.07"/><text id="border-box" fill="#EE6C49" font-family="PTMono-Bold, PT Mono" font-size="14" font-weight="bold"><tspan x="313.5" y="24">border-box</tspan></text><text id="content-box" fill="#EE6B47" font-family="PTMono-Bold, PT Mono" font-size="14" font-weight="bold"><tspan x="309.3" y="229">content-box</tspan></text><ellipse id="Oval-5" cx="87" cy="183.5" stroke="#EE6B47" stroke-width="2" rx="76" ry="43.5"/><ellipse id="Oval-5-Copy" cx="87" cy="183.5" stroke="#EE6B47" stroke-width="2" rx="76" ry="43.5"/><path id="Line-3" fill="#EE6B47" fill-rule="nonzero" d="M173.578 214.467l-17.955-11.145 1.055-1.699 17.954 11.144 3.165-5.098L186 221l-15.587-1.436 3.165-5.097z"/><path id="Line-4" fill="#EE6B47" fill-rule="nonzero" d="M179.473 154.007L158.65 166.37l-1.021-1.72 20.821-12.362-3.063-5.16L191 146l-8.464 13.167-3.063-5.16z"/><text id="border:-5px;" font-family="PTMono-Bold, PT Mono" font-size="16" font-weight="bold"><tspan x="32" y="176.642" fill="#999647">border: 5px;</tspan>  <tspan x="32" y="194.642" fill="#E8C48E">padding: 20px;</tspan> </text></g></g></svg>