<?xml version="1.0" encoding="UTF-8"?>
<svg width="550px" height="399px" viewBox="0 0 550 399" version="1.1" xmlns="http://www.w3.org/2000/svg" xmlns:xlink="http://www.w3.org/1999/xlink">
    <!-- Generator: sketchtool 55.2 (78181) - https://sketchapp.com -->
    <title>border-box.svg</title>
    <desc>Created with sketchtool.</desc>
    <g id="dom" stroke="none" stroke-width="1" fill="none" fill-rule="evenodd">
        <g id="border-box.svg">
            <text id="Content" font-family="OpenSans-Regular, Open Sans" font-size="18" font-weight="normal" fill="#5A4739">
                <tspan x="321.43457" y="96">Content</tspan>
            </text>
            <text id="Content" font-family="OpenSans-Regular, Open Sans" font-size="18" font-weight="normal" fill="#5A4739">
                <tspan x="321.43457" y="301">Content</tspan>
            </text>
            <path d="M218,38 L492,38 L492,145 L218,145 L218,38 Z M232,50 L232,133 L479,133 L479,50 L232,50 Z" id="Path-2" fill="#999647"></path>
            <path d="M193,243 L517,243 L517,350 L193,350 L193,243 Z M207,255 L207,338 L504,338 L504,255 L207,255 Z" id="Path-2" fill="#999647"></path>
            <path d="M223,43 L487,43 L487,140 L223,140 L223,43 Z M243,63 L243,120 L467,120 L467,63 L243,63 Z" id="Rectangle-222" fill="#E8C48E"></path>
            <path d="M198,248 L512,248 L512,345 L198,345 L198,248 Z M218,268 L218,325 L492,325 L492,268 L218,268 Z" id="Rectangle-222" fill="#E8C48E"></path>
            <path d="M217,20.5 L217,364.570007" id="Line" stroke="#EE6B47" stroke-width="2" stroke-linecap="square" stroke-dasharray="3,6"></path>
            <path d="M493,20.5 L493,364.570007" id="Line-2" stroke="#EE6B47" stroke-width="2" stroke-linecap="square" stroke-dasharray="3,6"></path>
            <text id="border-box" font-family="PTMono-Bold, PT Mono" font-size="14" font-weight="bold" fill="#EE6C49">
                <tspan x="313.5" y="24">border-box</tspan>
            </text>
            <text id="content-box" font-family="PTMono-Bold, PT Mono" font-size="14" font-weight="bold" fill="#EE6B47">
                <tspan x="309.3" y="229">content-box</tspan>
            </text>
            <ellipse id="Oval-5" stroke="#EE6B47" stroke-width="2" cx="87" cy="183.5" rx="76" ry="43.5"></ellipse>
            <ellipse id="Oval-5-Copy" stroke="#EE6B47" stroke-width="2" cx="87" cy="183.5" rx="76" ry="43.5"></ellipse>
            <path id="Line-3" d="M173.577675,214.46656 L155.622997,203.322277 L156.677723,201.622997 L174.632401,212.76728 L177.796578,207.669439 L186,221 L170.413498,219.564401 L173.577675,214.46656 Z" fill="#EE6B47" fill-rule="nonzero"></path>
            <path id="Line-4" d="M179.472572,154.007397 L158.650684,166.370393 L157.629607,164.650684 L178.451495,152.287688 L175.388262,147.128559 L191,146 L182.535805,159.166526 L179.472572,154.007397 Z" fill="#EE6B47" fill-rule="nonzero"></path>
            <text id="border:-5px;" font-family="PTMono-Bold, PT Mono" font-size="16" font-weight="bold">
                <tspan x="32" y="176.64193" fill="#999647">border: 5px;</tspan>
                <tspan x="147.2" y="176.64193" fill="#8A704D"></tspan>
                <tspan x="32" y="194.64193" fill="#E8C48E">padding: 20px;</tspan>
                <tspan x="166.4" y="194.64193" fill="#8A704D"></tspan>
            </text>
        </g>
    </g>
</svg>